# AST/ASF file generated using VICON BodyLanguage
# -----------------------------------------------
:version 1.10
:name VICON
:units
  mass 1.0
  length 0.45
  angle deg
:documentation
   .ast/.asf automatically generated from VICON data using
   VICON BodyBuilder and BodyLanguage model FoxedUp or BRILLIANT.MOD
:root
   order TX TY TZ RX RY RZ
   axis XYZ
   position 0 0 0  
   orientation 0 0 0 
:bonedata
  begin
     id 1 
     name lhipjoint
     direction 0.611804 -0.747784 0.257906 
     length 2.29243 
     axis 0 0 0  XYZ
  end
  begin
     id 2 
     name lfemur
     direction 0.34202 -0.939693 0  
     length 7.31159  
     axis 0 0 20  XYZ
    dof rx ry rz
    limits (-160.0 20.0)
           (-70.0 70.0)
           (-60.0 70.0)
  end
  begin
     id 3 
     name ltibia
     direction 0.34202 -0.939693 0   
     length 7.33391   
     axis 0 0 20   XYZ
    dof rx
    limits (-10.0 170.0)
  end
  begin
     id 4 
     name lfoot
     direction 0.122263 -0.335914 0.933924   
     length 1.76083   
     axis -90 7.62852e-016 20   XYZ
    dof rx rz
    limits (-45.0 90.0)
           (-70.0 20.0)
  end
  begin
     id 5 
     name ltoes
     direction 1.53533e-011 -4.2177e-011 1   
     length 0.879206   
     axis -90 7.62852e-016 20   XYZ
    dof rx
    limits (-90.0 20.0)
  end
  begin
     id 6 
     name rhipjoint
     direction -0.646469 -0.721248 0.248754   
     length 2.37677  
     axis 0 0 0  XYZ 
  end
  begin
     id 7 
     name rfemur
     direction -0.34202 -0.939693 0   
     length 7.18623   
     axis 0 0 -20   XYZ
    dof rx ry rz
    limits (-160.0 20.0)
           (-70.0 70.0)
           (-70.0 60.0)
  end
  begin
     id 8 
     name rtibia
     direction -0.34202 -0.939693 0   
     length 7.36567   
     axis 0 0 -20   XYZ
    dof rx
    limits (-10.0 170.0)
 end
 begin
     id 9 
     name rfoot
     direction -0.126681 -0.348054 0.928876   
     length 1.71902  
     axis -90 -7.62852e-016 -20   XYZ
    dof rx rz
    limits (-45.0 90.0)
           (-20.0 70.0)
  end
  begin
     id 10 
     name rtoes
     direction -1.53551e-011 -4.21898e-011 1   
     length 0.857792   
     axis -90 -7.62852e-016 -20   XYZ
    dof rx
    limits (-90.0 20.0)
  end
  begin
     id 11 
     name lowerback
     direction 0.0106509 0.999778 0.0181844   
     length 2.07668   
     axis 0 0 0   XYZ
    dof rx ry rz
    limits (-20.0 45.0)
           (-30.0 30.0)
           (-30.0 30.0)
  end
  begin
     id 12 
     name upperback
     direction -0.00456018 0.999989 -0.000590935   
     length 2.08011   
     axis 0 0 0   XYZ
    dof rx ry rz
    limits (-20.0 45.0)
           (-30.0 30.0)
           (-30.0 30.0)
  end
  begin
     id 13 
     name thorax
     direction -0.00910382 0.999916 -0.00923765   
     length 2.07397   
     axis 0 0 0   XYZ
    dof rx ry rz
    limits (-20.0 45.0)
           (-30.0 30.0)
           (-30.0 30.0)
  end
  begin
     id 14 
     name lowerneck
     direction 0.00171967 0.99778 0.0665733   
     length 1.67556   
     axis 0 0 0   XYZ
    dof rx ry rz
    limits (-20.0 45.0)
           (-30.0 30.0)
           (-30.0 30.0)
  end
  begin
     id 15 
     name upperneck
     direction -0.0143166 0.991302 -0.130828   
     length 1.68462   
     axis 0 0 0   XYZ
    dof rx ry rz
    limits (-20.0 45.0)
           (-30.0 30.0)
           (-30.0 30.0)
  end
  begin
     id 16
     name head
     direction -0.00606378 0.998665 -0.0512995  
     length 1.69269  
     axis 0 0 0   XYZ
    dof rx ry rz
    limits (-20.0 45.0)
           (-30.0 30.0)
           (-30.0 30.0)
  end
  begin
     id 17 
     name lclavicle
     direction 0.9638 0.179341 0.197297  
     length 4.12888  
     axis 0 0 0   XYZ
    dof ry rz
    limits (-20.0 10.0)
           (0.0 20.0)
  end
  begin
     id 18 
     name lhumerus
     direction 1 -4.48972e-011 -2.47351e-027   
     length 5.01834   
     axis -180 -30 -90   XYZ
    dof rx ry rz
    limits (-60.0 90.0)
           (-90.0 90.0)
           (-90.0 90.0)
  end
  begin
     id 19
     name lradius
     direction 1 -4.48965e-011 1.51591e-026   
     length 3.4869   
     axis -180 -30 -90   XYZ
    dof rx
    limits (-10.0 170.0)
  end
  begin
     id 20
     name lwrist
     direction 1 -4.48957e-011 2.70032e-026   
     length 1.74345   
     axis -1.81515e-014 90 90   XYZ
    dof ry
    limits (-180.0 0.0)
 end
  begin
     id 21 
     name lhand
     direction 1 -4.48951e-011 5.40064e-026   
     length 0.76799   
     axis -3.44607e-014 90 90   XYZ
    dof rx rz
    limits (-90.0 90.0)
           (-45.0 45.0)
  end
  begin
     id 22 
     name lfingers
     direction 1 -4.48971e-011 1.08013e-025   
     length 0.619174   
     axis -6.89214e-014 90 90   XYZ
    dof rx
    limits (0.0 90.0)
  end
  begin
     id 23
     name lthumb
     direction 0.707107 -6.34931e-011 0.707107   
     length 0.889013   
     axis -90 45 2.85299e-015   XYZ
    dof rx rz
    limits (-45.0 45.0)
           (-45.0 45.0)
  end
  begin
     id 24 
     name rclavicle
     direction -0.961409 0.252588 0.109054   
     length 4.04305  
     axis 0 0 0   XYZ 
    dof ry rz
    limits (-10.0 20.0)
           (-20.0 0.0)
  end
  begin
     id 25 
     name rhumerus
     direction -1 -4.4897e-011 1.33872e-017  
     length 4.70164   
     axis -180 30 90   XYZ
    dof rx ry rz
    limits (-90.0 60.0)
           (-90.0 90.0)
           (-90.0 90.0)
  end
  begin
     id 26 
     name rradius
     direction -1 -4.48954e-011 1.83844e-026   
     length 3.49911   
     axis -180 30 90   XYZ
    dof rx
    limits (-10.0 170.0)
  end
  begin
     id 27 
     name rwrist
     direction -1 -4.49008e-011 2.70032e-026   
     length 1.74955   
     axis -1.81515e-014 -90 -90   XYZ
    dof ry
    limits (-180.0 0.0)
  end
  begin
     id 28
     name rhand
     direction -1 -4.48916e-011 5.40064e-026   
     length 0.739335   
     axis -3.44607e-014 -90 -90   XYZ
    dof rx rz
    limits (-90.0 90.0)
           (-45.0 45.0)
  end
  begin
     id 29
     name rfingers
     direction -1 -4.48987e-011 1.08013e-025   
     length 0.596071   
     axis -6.89214e-014 -90 -90   XYZ
    dof rx
    limits (0.0 90.0)
  end
  begin
     id 30
     name rthumb
     direction -0.707107 -6.34935e-011 0.707107   
     length 0.855843   
     axis -90 -45 -2.85299e-015   XYZ
    dof rx rz
    limits (-45.0 45.0)
           (-45.0 45.0)
  end
:hierarchy
  begin
    root lhipjoint rhipjoint lowerback
    lhipjoint lfemur
    lfemur ltibia
    ltibia lfoot
    lfoot ltoes
    rhipjoint rfemur
    rfemur rtibia
    rtibia rfoot
    rfoot rtoes
    lowerback upperback
    upperback thorax
    thorax lowerneck lclavicle rclavicle
    lowerneck upperneck
    upperneck head
    lclavicle lhumerus
    lhumerus lradius
    lradius lwrist
    lwrist lhand lthumb
    lhand lfingers
    rclavicle rhumerus
    rhumerus rradius
    rradius rwrist
    rwrist rhand rthumb
    rhand rfingers
  end

#!OML:ASF I:\salsa\salsa 7_09\Patient 1\Session 1\dancermale.ASF
:FULLY-SPECIFIED
:DEGREES
53
root -12.9019 17.5787 0.378658 -60.8592 85.85 -72.1462
lowerback -10.7553 2.54412 5.95155
upperback 0.552497 2.56685 1.42143
thorax 6.83055 1.45608 -1.41787
lowerneck -5.20039 -11.8952 -5.61804
upperneck 5.06628 -15.7456 4.11237
head 3.40176 -7.79876 1.47813
rclavicle 2.11706e-014 4.77083e-015
rhumerus -36.166 -21.4831 -80.6046
rradius 30.6231
rwrist 26.8365
rhand -29.6214 10.1971
rfingers 7.12502
rthumb -2.95182 -19.7622
lclavicle 2.11706e-014 4.77083e-015
lhumerus -31.3577 7.31023 91.7161
lradius 30.0424
lwrist 4.333
lhand -25.4969 47.4501
lfingers 7.12502
lthumb 1.03161 77.4274
rfemur -11.3285 2.03937 25.1621
rtibia 7.17914
rfoot -12.2841 -7.01166
rtoes 6.38612
lfemur -16.6477 -0.905236 -11.415
ltibia 22.1258
lfoot -18.2414 13.8239
ltoes -6.42852
54
root -12.8923 17.5889 0.345271 -63.7959 85.9831 -75.0338
lowerback -10.8344 2.40378 5.79963
upperback 0.531356 2.39356 1.43489
thorax 6.8326 1.36545 -1.34657
lowerneck -5.06758 -11.933 -6.01669
upperneck 5.08811 -15.8049 4.53351
head 3.47134 -7.82359 1.67611
rclavicle -1.79403e-014 1.19271e-015
rhumerus -35.7872 -21.0938 -81.1571
rradius 30.9977
rwrist 26.58
rhand -29.5114 10.2903
rfingers 7.12502
rthumb -2.8456 -19.6704
lclavicle -1.79403e-014 1.19271e-015
lhumerus -31.0929 6.18946 92.2647
lradius 30.6792
lwrist 5.122
lhand -25.5856 47.4127
lfingers 7.12502
lthumb 0.945999 77.3904
rfemur -11.0583 2.41261 24.9495
rtibia 6.85862
rfoot -12.1676 -7.60633
rtoes 6.4151
lfemur -15.9098 -1.2239 -11.5313
ltibia 20.7629
lfoot -17.9128 13.4985
ltoes -6.13321
55
root -12.8844 17.5985 0.311335 -66.8678 86.1111 -77.898
lowerback -10.7759 2.25585 5.63477
upperback 0.553842 2.22029 1.43272
thorax 6.80425 1.27445 -1.28845
lowerneck -4.83849 -11.9752 -6.08005
upperneck 4.92443 -15.8642 4.54308
head 3.38193 -7.85856 1.70454
rclavicle -7.60351e-015 -9.93923e-015
rhumerus -35.3663 -20.6104 -81.8359
rradius 31.2972
rwrist 26.0346
rhand -29.4779 9.85361
rfingers 7.12502
rthumb -2.81324 -20.1076
lclavicle -7.60351e-015 -9.93923e-015
lhumerus -30.826 5.2137 92.6653
lradius 31.3052
lwrist 5.75524
lhand -25.5455 47.2727
lfingers 7.12502
lthumb 0.98475 77.2502
rfemur -10.5796 2.92057 24.735
rtibia 6.47879
rfoot -12.0944 -8.3978
rtoes 6.25651
lfemur -15.044 -1.35154 -11.6732
ltibia 19.4764
lfoot -17.6959 12.9565
ltoes -5.36505
56
root -12.879 17.6107 0.268443 -68.5071 86.318 -79.3427
lowerback -10.7162 2.15781 5.4627
upperback 0.57227 2.1175 1.36684
thorax 6.77861 1.21834 -1.28118
lowerneck -4.89745 -11.988 -5.75882
upperneck 5.08144 -15.8964 4.40298
head 3.4029 -7.87082 1.59965
rclavicle -3.97569e-015 -2.78299e-015
rhumerus -34.9566 -20.1507 -82.4968
rradius 31.4733
rwrist 25.1637
rhand -29.6822 9.9294
rfingers 7.12502
rthumb -3.01051 -20.0291
lclavicle -3.97569e-015 -2.78299e-015
lhumerus -30.5806 4.19918 93.0032
lradius 32.0067
lwrist 6.24449
lhand -25.2918 47.2042
lfingers 7.12502
lthumb 1.22973 77.1804
rfemur -10.1874 3.14305 24.3733
rtibia 6.23641
rfoot -12.0677 -8.93259
rtoes 5.55503
lfemur -14.2575 -1.25268 -12.0354
ltibia 18.2807
lfoot -17.3283 12.4995
ltoes -6.10165
57
root -12.8861 17.6195 0.225944 -64.0594 86.448 -74.8616
lowerback -10.668 2.21088 5.32055
upperback 0.557152 2.21656 1.22961
thorax 6.74131 1.26229 -1.33176
lowerneck -4.87149 -12.0063 -5.87385
upperneck 5.17701 -15.938 4.6848
head 3.47516 -7.88387 1.70213
rclavicle -1.21259e-014 -1.11319e-014
rhumerus -34.5236 -19.8493 -83.1359
rradius 31.7125
rwrist 24.7208
rhand -29.8448 10.0004
rfingers 7.12502
rthumb -3.16755 -19.9558
lclavicle -1.21259e-014 -1.11319e-014
lhumerus -30.3232 2.82977 93.3313
lradius 32.8707
lwrist 7.02949
lhand -25.0038 47.1687
lfingers 7.12502
lthumb 1.50786 77.1431
rfemur -10.2339 3.54608 23.9514
rtibia 6.31978
rfoot -12.0777 -9.24971
rtoes 5.03839
lfemur -13.7499 -0.92388 -12.4167
ltibia 17.3491
lfoot -16.8168 12.2598
ltoes -7.2314
58
root -12.9157 17.6248 0.184703 -48.3988 86.3148 -59.5108
lowerback -10.655 2.48242 5.05551
upperback 0.422636 2.62915 1.01636
thorax 6.61508 1.4536 -1.34255
lowerneck -4.94102 -12.0506 -5.89844
upperneck 5.24255 -16.0054 4.8256
head 3.53256 -7.91125 1.73907
rclavicle -2.24627e-014 2.78299e-015
rhumerus -34.0422 -19.5523 -83.8055
rradius 32.0524
rwrist 24.8691
rhand -29.956 9.43931
rfingers 7.12502
rthumb -3.27497 -20.5153
lclavicle -2.24627e-014 2.78299e-015
lhumerus -30.0373 1.44918 93.6004
lradius 33.8208
lwrist 7.96756
lhand -24.9214 47.2379
lfingers 7.12502
lthumb 1.58753 77.2118
rfemur -11.1424 4.25503 23.342
rtibia 6.96311
rfoot -12.043 -9.16195
rtoes 4.67457
lfemur -13.7137 -0.297758 -12.9061
ltibia 16.6971
lfoot -16.4237 12.4084
ltoes -7.41166
59
root -12.9187 17.6402 0.137873 -42.51 86.3981 -54.0387
lowerback -11.1716 2.57333 4.91822
upperback 0.315155 2.75208 0.799934
thorax 6.80486 1.51351 -1.4545
lowerneck -4.91472 -12.1315 -5.91374
upperneck 5.23361 -16.1181 4.87773
head 3.53817 -7.96609 1.75159
rclavicle -2.48481e-016 -1.33186e-014
rhumerus -33.6143 -19.1027 -84.5482
rradius 32.4101
rwrist 24.7281
rhand -30.0709 8.94959
rfingers 7.12502
rthumb -3.38589 -21.0033
lclavicle -2.48481e-016 -1.33186e-014
lhumerus -29.7729 0.137216 93.8001
lradius 34.7942
lwrist 8.83175
lhand -24.939 47.4099
lfingers 7.12502
lthumb 1.57044 77.3838
rfemur -11.7576 4.32762 22.7815
rtibia 7.13936
rfoot -11.9545 -9.15833
rtoes 4.06699
lfemur -13.7908 -0.0308441 -13.4035
ltibia 16.0043
lfoot -16.2003 12.2369
ltoes -7.10171
60
root -12.924 17.6398 0.0885497 -41.7074 86.0918 -53.1024
lowerback -11.0625 2.7247 5.32561
upperback 0.330509 2.91194 0.705913
thorax 6.79719 1.60733 -1.75721
lowerneck -4.92057 -12.1608 -5.85187
upperneck 5.33512 -16.1735 4.9822
head 3.58326 -7.98755 1.76751
rclavicle 2.31087e-015 2.68359e-014
rhumerus -33.2718 -18.5322 -85.2843
rradius 32.8368
rwrist 24.1829
rhand -30.0674 8.74932
rfingers 7.12502
rthumb -3.38251 -21.2036
lclavicle 2.31087e-015 2.68359e-014
lhumerus -29.5421 -1.20591 93.9623
lradius 35.8046
lwrist 9.63327
lhand -24.8583 47.4399
lfingers 7.12502
lthumb 1.64839 77.4133
rfemur -11.6373 4.33281 22.8415
rtibia 7.1173
rfoot -11.8441 -9.02044
rtoes 3.61431
lfemur -13.1678 0.213329 -13.3385
ltibia 15.132
lfoot -15.9332 12.1143
ltoes -6.77372
61
root -12.9259 17.6362 0.0465026 -40.6164 85.8995 -51.898
lowerback -11.0845 2.82566 5.47287
upperback 0.386463 3.02621 0.650537
thorax 6.88944 1.67143 -1.8749
lowerneck -4.9956 -12.1923 -5.9696
upperneck 5.4735 -16.2234 5.16681
head 3.68137 -8.00548 1.83148
rclavicle 8.67198e-015 1.17283e-014
rhumerus -32.9146 -17.8937 -85.9444
rradius 33.3173
rwrist 23.7131
rhand -30.0528 8.71164
rfingers 7.12502
rthumb -3.36842 -21.2415
lclavicle 8.67198e-015 1.17283e-014
lhumerus -29.2337 -2.36277 94.0961
lradius 36.7669
lwrist 10.3274
lhand -24.8148 47.5649
lfingers 7.12502
lthumb 1.69048 77.538
rfemur -11.4814 4.67764 22.7824
rtibia 7.03142
rfoot -11.8108 -9.24021
rtoes 3.54113
lfemur -12.5866 0.356249 -13.373
ltibia 14.2726
lfoot -15.6218 12.0495
ltoes -6.71509
